<?xml version="1.0" encoding="UTF-8"?>
<svg xmlns="http://www.w3.org/2000/svg" width="256" height="256" viewBox="0 0 256 256" role="img" aria-label="Bostify Premium Logo">
  <defs>
    <linearGradient id="g1" x1="0%" y1="0%" x2="100%" y2="100%">
      <stop offset="0%" stop-color="#00c851"/>
      <stop offset="100%" stop-color="#00e676"/>
    </linearGradient>
    <radialGradient id="shine" cx="30%" cy="20%" r="60%">
      <stop offset="0%" stop-color="#ffffff" stop-opacity="0.35"/>
      <stop offset="60%" stop-color="#ffffff" stop-opacity="0.1"/>
      <stop offset="100%" stop-color="#ffffff" stop-opacity="0"/>
    </radialGradient>
    <filter id="softShadow" x="-20%" y="-20%" width="140%" height="140%">
      <feDropShadow dx="0" dy="8" stdDeviation="12" flood-color="#00d27a" flood-opacity="0.35"/>
    </filter>
  </defs>

  <!-- Background: dark rounded card -->
  <rect x="8" y="8" width="240" height="240" rx="48" fill="#0b1220"/>

  <!-- Gradient ring -->
  <circle cx="128" cy="128" r="96" fill="none" stroke="url(#g1)" stroke-width="12" filter="url(#softShadow)"/>

  <!-- Inner glass circle -->
  <circle cx="128" cy="128" r="84" fill="#0f192b" opacity="0.85" stroke="#0bd28f" stroke-opacity="0.15" stroke-width="2"/>

  <!-- Shine highlight -->
  <ellipse cx="94" cy="78" rx="60" ry="36" fill="url(#shine)" transform="rotate(-12 94 78)"/>

  <!-- Stylized B mark -->
  <g fill="none" stroke="#eafff5" stroke-linecap="round" stroke-linejoin="round">
    <path d="M92 76 v108" stroke-width="18"/>
    <path d="M92 76 h52 c22 0 36 12 36 28s-14 28-36 28h-52" stroke-width="18"/>
    <path d="M92 132 h58 c22 0 38 12 38 28s-16 28-38 28h-58" stroke-width="18"/>
  </g>

  <!-- Accent dot -->
  <circle cx="196" cy="64" r="6" fill="#00f2a6"/>
</svg>
